<svg width="60" height="60" fill="none" xmlns="http://www.w3.org/2000/svg"><g clip-path="url('#clip0_4_237')"><g clip-path="url('#clip1_4_237')"><path fill-rule="evenodd" clip-rule="evenodd" d="M28.415 55.212a1.876 1.876 0 0 0 3.176 0l24.371-38.86a1.876 1.876 0 0 0-.179-2.232l-8.69-9.922a1.88 1.88 0 0 0-1.41-.64h-31.36a1.88 1.88 0 0 0-1.41.64l-8.69 9.922a1.876 1.876 0 0 0-.18 2.232l24.372 38.86Z" fill="#FDF0EA"/><path fill-rule="evenodd" clip-rule="evenodd" d="M3.838 15.188h52.354a1.89 1.89 0 0 0-.385-.693L47.11 4.57a1.874 1.874 0 0 0-1.41-.64H14.33c-.54 0-1.056.233-1.41.64l-8.697 9.924a1.89 1.89 0 0 0-.385.693Z" fill="#fff"/><path fill-rule="evenodd" clip-rule="evenodd" d="m22.511 15.188 7.504-11.256H14.33c-.18 0-.355.025-.524.075l8.705 11.18Zm7.504-11.256 7.504 11.255 8.705-11.18a1.842 1.842 0 0 0-.523-.075H30.014Z" fill="#FDF0EA"/><path fill-rule="evenodd" clip-rule="evenodd" d="M37.519 15.188H22.51l7.504-11.256 7.504 11.255ZM30.015 56.473l-7.504-41.285H37.52l-7.504 41.285Z" fill="#fff"/><path fill-rule="evenodd" clip-rule="evenodd" d="m15.005 48.992 1.48 2.272 2.273 1.48-2.272 1.48-1.481 2.272-1.48-2.272-2.271-1.48 2.272-1.48 1.479-2.272ZM7.505 33.992l1.48 2.272 2.273 1.48-2.272 1.48-1.481 2.272-1.48-2.272-2.271-1.48 2.272-1.48 1.479-2.272ZM51.254 40.241l1.481 2.272 2.272 1.48-2.272 1.48-1.48 2.272-1.48-2.272-2.272-1.48 2.272-1.48 1.48-2.272Z" fill="#FDF0EA"/><path d="M23.134 48.144a1.25 1.25 0 1 0 0-2.501 1.25 1.25 0 0 0 0 2.501Z" fill="#EB662B"/><path fill-rule="evenodd" clip-rule="evenodd" d="M5.339 16.438h16.137l7.037 36.942-2.196-3.5a1.25 1.25 0 0 0-2.119 1.328l3.168 5.051a3.125 3.125 0 0 0 2.65 1.465 3.125 3.125 0 0 0 2.648-1.465l24.38-38.867a3.126 3.126 0 0 0-.297-3.722l-8.694-9.923A3.13 3.13 0 0 0 45.7 2.68H14.33a3.13 3.13 0 0 0-2.353 1.066L3.283 13.67a3.126 3.126 0 0 0-.298 3.722l17.078 27.224a1.252 1.252 0 0 0 2.12-1.328L5.338 16.438Zm48.317-2.501-7.19-8.206-6.388 8.206h8.697a1.251 1.251 0 0 1 0 2.501h-10.22L31.516 53.38l23.174-36.942h-2.165a1.251 1.251 0 0 1 0-2.501h1.13Zm-17.648 2.501H24.022l5.993 31.46 5.993-31.46ZM6.375 13.937h13.578L13.564 5.73l-7.19 8.206Zm18.474 0H35.18l-5.166-7.75-5.166 7.75Zm18.874-8.755h-11.37l5.245 7.868 6.125-7.868Zm-16.045 0H16.307l6.126 7.868 5.245-7.868ZM16.053 48.309a1.252 1.252 0 0 0-2.096 0l-1.336 2.05-2.05 1.338a1.25 1.25 0 0 0 0 2.095l2.05 1.336 1.336 2.051a1.25 1.25 0 0 0 2.096 0l1.337-2.05 2.05-1.337a1.252 1.252 0 0 0 0-2.095l-2.05-1.338-1.337-2.05Zm-1.048 2.973.433.665c.095.145.22.27.365.364l.664.434-.664.431c-.145.095-.27.22-.365.366l-.433.664-.432-.664a1.24 1.24 0 0 0-.366-.366l-.663-.431.663-.433c.146-.095.271-.22.366-.365l.432-.665ZM8.553 33.309a1.252 1.252 0 0 0-2.095 0l-1.337 2.05-2.05 1.338a1.25 1.25 0 0 0 0 2.095l2.05 1.336 1.336 2.051a1.25 1.25 0 0 0 2.095 0l1.338-2.05 2.05-1.337a1.252 1.252 0 0 0 0-2.095l-2.05-1.338-1.337-2.05Zm-1.048 2.973.433.665c.095.145.22.27.365.364l.664.434-.664.431c-.145.095-.27.22-.365.366l-.433.664-.432-.664a1.243 1.243 0 0 0-.366-.366l-.663-.431.663-.433c.146-.095.271-.22.366-.365l.432-.665ZM52.302 39.558a1.249 1.249 0 0 0-2.096 0l-1.335 2.05-2.051 1.338a1.25 1.25 0 0 0 0 2.096l2.05 1.336 1.337 2.05a1.25 1.25 0 0 0 2.096 0l1.336-2.05 2.051-1.336a1.252 1.252 0 0 0 0-2.096l-2.05-1.337-1.338-2.05Zm-1.048 2.973.433.665c.095.145.22.27.365.365l.665.433-.665.431c-.145.095-.27.22-.365.367l-.433.663-.431-.663a1.243 1.243 0 0 0-.366-.367l-.664-.431.664-.433c.146-.095.27-.22.366-.365l.431-.665Z" fill="#EB662B"/></g></g><defs><clipPath id="clip0_4_237"><path fill="#fff" d="M0 0h60v60H0z"/></clipPath><clipPath id="clip1_4_237"><path fill="#fff" d="M0 0h60v60H0z"/></clipPath></defs></svg>