<svg width="60" height="60" fill="none" xmlns="http://www.w3.org/2000/svg"><g clip-path="url('#clip0_4_222')"><g clip-path="url('#clip1_4_222')"><path fill-rule="evenodd" clip-rule="evenodd" d="M30.06 3.887c-8.98 0-16.258 7.278-16.258 16.258a16.258 16.258 0 0 0 7.748 13.828c.765.47 1.57 1.496 1.745 2.376l.442 2.21a1.992 1.992 0 0 0 1.946 1.596h8.754c.942 0 1.761-.672 1.946-1.596l.442-2.21c.176-.88.98-1.906 1.746-2.375a16.262 16.262 0 0 0 7.747-13.83c0-8.979-7.278-16.257-16.258-16.257Z" fill="#FDF0EA"/><path fill-rule="evenodd" clip-rule="evenodd" d="m23.647 47.946 12.816.065-1.092 6.551a2.222 2.222 0 0 1-2.184 1.851h-6.253a2.222 2.222 0 0 1-2.185-1.85l-1.102-6.617Z" fill="#fff"/><path fill-rule="evenodd" clip-rule="evenodd" d="M23.182 45.157h13.756a1.247 1.247 0 0 1 1.251 1.251v1.25c0 .687-.564 1.251-1.25 1.251H23.181a1.247 1.247 0 0 1-1.251-1.25v-1.25c0-.688.564-1.252 1.25-1.252Z" fill="#FDF0EA"/><path fill-rule="evenodd" clip-rule="evenodd" d="M30.06 3.887c-3.108 0-5.628 7.278-5.628 16.258.003 5.678 1.03 10.898 2.683 13.828.264.47.543 1.496.604 2.376l.152 2.21c.064.924.348 1.596.673 1.596h3.032c.325 0 .609-.672.673-1.596l.152-2.21c.061-.88.34-1.906.604-2.375 1.654-2.931 2.68-8.151 2.683-13.83 0-8.979-2.52-16.257-5.628-16.257Z" fill="#fff"/><path fill-rule="evenodd" clip-rule="evenodd" d="M11.473 38.61a3.803 3.803 0 0 0-2.517-.956c-2.159 0-3.908 1.82-3.908 4.064 0 2.245 1.75 4.065 3.908 4.065h5.471c1.727 0 3.127-1.456 3.127-3.252 0-1.796-1.4-3.251-3.127-3.251a3.03 3.03 0 0 0-1.796.589l-1.158-1.26Z" fill="#FDF0EA"/><path fill-rule="evenodd" clip-rule="evenodd" d="M51.825 30.131a2.665 2.665 0 0 1 1.763-.669c1.51 0 2.735 1.275 2.735 2.845 0 1.571-1.224 2.846-2.735 2.846h-3.83c-1.209 0-2.19-1.02-2.19-2.277 0-1.256.981-2.276 2.19-2.276.467 0 .901.153 1.256.413l.81-.882Z" fill="#fff"/><path fill-rule="evenodd" clip-rule="evenodd" d="m22.741 50.121.775 4.648a3.476 3.476 0 0 0 3.418 2.895h6.253a3.476 3.476 0 0 0 3.418-2.895l.774-4.649a2.515 2.515 0 0 0 2.06-2.461v-1.25a2.502 2.502 0 0 0-2.5-2.502h-.626v-3.104a3.227 3.227 0 0 0 1.296-1.999l.443-2.21c.116-.581.667-1.244 1.173-1.554a17.51 17.51 0 0 0 8.344-14.892v-.003c0-9.67-7.84-17.509-17.509-17.509-9.67 0-17.509 7.84-17.509 17.509v.001c.002.568.03 1.13.084 1.687a1.25 1.25 0 0 0 2.489-.245c-.046-.476-.07-.958-.071-1.444 0-6.889 4.64-12.692 10.966-14.456-1.675 3.011-2.837 8.354-2.837 14.457v.001c.003 5.933 1.117 11.38 2.842 14.442.207.364.4 1.165.447 1.848l.152 2.21c.007.088.015.175.024.258h-.964a.734.734 0 0 1-.72-.59l-.44-2.21c-.237-1.18-1.294-2.566-2.32-3.196a14.994 14.994 0 0 1-4.994-5.038 1.251 1.251 0 0 0-2.143 1.292 17.499 17.499 0 0 0 5.83 5.878c.505.31 1.056.973 1.173 1.554l.442 2.21c.165.83.643 1.534 1.296 1.999v3.104h-.625a2.513 2.513 0 0 0-2.502 2.501v1.25a2.502 2.502 0 0 0 2.061 2.463Zm12.096.039h-.441a1.251 1.251 0 0 1 0-2.501h2.542v-1.15c-.08-.02-.193-.1 0-.1H23.182v1.15c.08.02.194.1 0 .1h7.196c.689 0 1.25.56 1.25 1.25s-.561 1.251-1.25 1.251h-5.095l.7 4.197a.966.966 0 0 0 .95.806h6.254a.966.966 0 0 0 .95-.806l.7-4.197Zm-6.028-6.253v-2.501h-2.5v2.5h2.5Zm5.003 0v-2.501h-2.501v2.5h2.501ZM30.06 5.137c.327 0 .618.198.912.48.467.45.891 1.115 1.28 1.94 1.341 2.838 2.185 7.422 2.185 12.588-.002 5.423-.943 10.415-2.521 13.214-.324.577-.688 1.825-.762 2.904L31 38.473a2.868 2.868 0 0 1-.068.431h-1.744a2.868 2.868 0 0 1-.068-.431l-.154-2.21c-.074-1.08-.438-2.327-.762-2.904-1.578-2.799-2.519-7.791-2.521-13.214 0-5.166.844-9.75 2.185-12.588.389-.825.813-1.49 1.28-1.94.294-.282.586-.48.912-.48Zm4.04.55c1.677 3.012 2.838 8.355 2.838 14.458v.001c-.002 5.933-1.116 11.38-2.842 14.442-.206.364-.4 1.165-.447 1.848l-.152 2.21a7.644 7.644 0 0 1-.024.258h.964a.734.734 0 0 0 .72-.59l.44-2.21c.237-1.18 1.294-2.566 2.318-3.196a15.007 15.007 0 0 0 7.153-12.764c0-6.887-4.642-12.692-10.967-14.456Z" fill="#EB662B"/><path fill-rule="evenodd" clip-rule="evenodd" d="M12.395 37.764a1.392 1.392 0 0 0-.096-.095 5.056 5.056 0 0 0-3.343-1.266c-2.835 0-5.16 2.366-5.16 5.315 0 2.95 2.325 5.315 5.16 5.315h5.471c2.404 0 4.377-2.002 4.377-4.502s-1.973-4.502-4.377-4.502c-.537 0-1.053.1-1.53.282l-.502-.547Zm-1.792 1.746 1.108 1.205a1.25 1.25 0 0 0 1.658.164c.3-.219.664-.349 1.058-.349 1.05 0 1.876.91 1.876 2.001 0 1.092-.825 2.001-1.876 2.001H8.956c-1.482 0-2.658-1.273-2.658-2.814 0-1.54 1.176-2.814 2.658-2.814.621 0 1.193.227 1.643.603l.004.003ZM51 29.19l-.283.298a3.377 3.377 0 0 0-.96-.139c-1.886 0-3.439 1.566-3.439 3.527s1.553 3.527 3.44 3.527h3.83c2.187 0 3.986-1.82 3.986-4.096 0-2.275-1.799-4.096-3.986-4.096-.985 0-1.89.367-2.587.98Zm1.696 1.842c.247-.2.556-.32.892-.32.833 0 1.485.727 1.485 1.595s-.652 1.595-1.485 1.595h-3.83c-.532 0-.939-.473-.939-1.026 0-.552.407-1.025.938-1.025.194 0 .373.064.52.171a1.252 1.252 0 0 0 1.659-.162l.757-.826.003-.002Z" fill="#EB662B"/><path d="M14.595 26.358a1.251 1.251 0 1 0 0-2.502 1.251 1.251 0 0 0 0 2.502Z" fill="#EB662B"/></g></g><defs><clipPath id="clip0_4_222"><path fill="#fff" d="M0 0h60v60H0z"/></clipPath><clipPath id="clip1_4_222"><path fill="#fff" d="M0 0h60v60H0z"/></clipPath></defs></svg>