<svg width="167" height="32" fill="none" xmlns="http://www.w3.org/2000/svg"><g clip-path="url('#clip0_4_268')"><g clip-path="url('#clip1_4_268')"><g clip-path="url('#clip2_4_268')"><path d="m55.464 27.048-5.46-14.88h4.02l3.78 11.25 3.78-11.25h4.02l-5.49 14.88h-4.65ZM70.096 9.858c-.7 0-1.28-.21-1.74-.63-.44-.42-.66-.95-.66-1.59 0-.64.22-1.16.66-1.56.46-.42 1.04-.63 1.74-.63s1.27.21 1.71.63c.46.4.69.92.69 1.56s-.23 1.17-.69 1.59c-.44.42-1.01.63-1.71.63Zm-1.92 17.19v-14.88h3.84v14.88h-3.84ZM81.154 27.408c-1.28 0-2.33-.2-3.15-.6-.82-.42-1.43-.97-1.83-1.65-.4-.68-.6-1.43-.6-2.25 0-1.38.54-2.5 1.62-3.36 1.08-.86 2.7-1.29 4.86-1.29h3.78v-.36c0-1.02-.29-1.77-.87-2.25-.58-.48-1.3-.72-2.16-.72-.78 0-1.46.19-2.04.57-.58.36-.94.9-1.08 1.62h-3.75c.1-1.08.46-2.02 1.08-2.82.64-.8 1.46-1.41 2.46-1.83 1-.44 2.12-.66 3.36-.66 2.12 0 3.79.53 5.01 1.59 1.22 1.06 1.83 2.56 1.83 4.5v9.15h-3.27l-.36-2.4c-.44.8-1.06 1.46-1.86 1.98-.78.52-1.79.78-3.03.78Zm.87-3c1.1 0 1.95-.36 2.55-1.08.62-.72 1.01-1.61 1.17-2.67h-3.27c-1.02 0-1.75.19-2.19.57-.44.36-.66.81-.66 1.35 0 .58.22 1.03.66 1.35.44.32 1.02.48 1.74.48ZM99.764 27.048c-1.56 0-2.81-.38-3.75-1.14-.94-.76-1.41-2.11-1.41-4.05v-6.48h-2.55v-3.21h2.55l.45-3.99h3.39v3.99h4.02v3.21h-4.02v6.51c0 .72.15 1.22.45 1.5.32.26.86.39 1.62.39h1.86v3.27h-2.61ZM112.52 27.408c-1.44 0-2.74-.33-3.9-.99a7.447 7.447 0 0 1-2.73-2.73c-.66-1.18-.99-2.54-.99-4.08s.34-2.89 1.02-4.05c.68-1.18 1.59-2.1 2.73-2.76 1.16-.66 2.46-.99 3.9-.99 1.42 0 2.7.33 3.84.99 1.16.66 2.07 1.58 2.73 2.76.68 1.16 1.02 2.51 1.02 4.05s-.34 2.9-1.02 4.08a7.16 7.16 0 0 1-2.73 2.73c-1.16.66-2.45.99-3.87.99Zm0-3.33c1 0 1.87-.37 2.61-1.11.74-.76 1.11-1.88 1.11-3.36s-.37-2.59-1.11-3.33c-.74-.76-1.6-1.14-2.58-1.14-1.02 0-1.9.38-2.64 1.14-.72.74-1.08 1.85-1.08 3.33s.36 2.6 1.08 3.36c.74.74 1.61 1.11 2.61 1.11ZM129.153 27.408c-1.86 0-3.3-.58-4.32-1.74-1-1.16-1.5-2.86-1.5-5.1v-8.4h3.81v8.04c0 1.28.26 2.26.78 2.94.52.68 1.34 1.02 2.46 1.02 1.06 0 1.93-.38 2.61-1.14.7-.76 1.05-1.82 1.05-3.18v-7.68h3.84v14.88h-3.39l-.3-2.52c-.46.88-1.13 1.58-2.01 2.1-.86.52-1.87.78-3.03.78ZM141.825 27.048v-14.88h3.42l.36 2.79c.54-.96 1.27-1.72 2.19-2.28.94-.58 2.04-.87 3.3-.87v4.05h-1.08c-.84 0-1.59.13-2.25.39-.66.26-1.18.71-1.56 1.35-.36.64-.54 1.53-.54 2.67v6.78h-3.84ZM159.87 27.408c-1.32 0-2.48-.21-3.48-.63-1-.44-1.8-1.04-2.4-1.8-.6-.76-.96-1.64-1.08-2.64h3.87c.12.58.44 1.08.96 1.5.54.4 1.23.6 2.07.6.84 0 1.45-.17 1.83-.51.4-.34.6-.73.6-1.17 0-.64-.28-1.07-.84-1.29-.56-.24-1.34-.47-2.34-.69-.64-.14-1.29-.31-1.95-.51-.66-.2-1.27-.45-1.83-.75a4.24 4.24 0 0 1-1.32-1.2c-.34-.5-.51-1.11-.51-1.83 0-1.32.52-2.43 1.56-3.33 1.06-.9 2.54-1.35 4.44-1.35 1.76 0 3.16.41 4.2 1.23 1.06.82 1.69 1.95 1.89 3.39h-3.63c-.22-1.1-1.05-1.65-2.49-1.65-.72 0-1.28.14-1.68.42-.38.28-.57.63-.57 1.05 0 .44.29.79.87 1.05.58.26 1.35.5 2.31.72 1.04.24 1.99.51 2.85.81.88.28 1.58.71 2.1 1.29.52.56.78 1.37.78 2.43.02.92-.22 1.75-.72 2.49-.5.74-1.22 1.32-2.16 1.74-.94.42-2.05.63-3.33.63Z" fill="#EB662B"/><path d="M39.925 6.902a14.821 14.821 0 0 0-3.745.717c-1.233.346-2.433.8-3.586 1.355a15.22 15.22 0 0 0-3.267 1.912 20.717 20.717 0 0 0-2.869 2.39 28.445 28.445 0 0 0-2.47 2.949 26.94 26.94 0 0 0-1.912 3.267 32.897 32.897 0 0 0-1.355 3.585 30.996 30.996 0 0 0-.717 3.745 15.537 15.537 0 0 0-.717-3.745 21.912 21.912 0 0 0-1.354-3.585 15.219 15.219 0 0 0-1.913-3.267 27.659 27.659 0 0 0-2.39-2.949 27.659 27.659 0 0 0-2.948-2.39 15.22 15.22 0 0 0-3.267-1.912 17.53 17.53 0 0 0-3.586-1.355 14.82 14.82 0 0 0-3.745-.717c0 .717-.08 1.434-.08 2.151a19.76 19.76 0 0 0 .399 4.383c.148.726.334 1.444.557 2.151.168.714.408 1.408.718 2.072.258.678.55 1.343.876 1.992l1.116 1.912 1.354 1.753L6.46 24.91l1.593 1.514 1.753 1.275c.638.478 1.275.797 1.912 1.195l1.992.956 1.992.717 2.152.558 2.151.319 2.152-.319 2.151-.558 2.072-.717 1.992-.956 1.832-1.195 1.753-1.275c.57-.463 1.102-.97 1.594-1.514a14.342 14.342 0 0 0 1.514-1.594l1.275-1.753c.398-.637.797-1.275 1.116-1.912l.956-1.992.717-2.072c.197-.708.357-1.426.478-2.151.145-.711.252-1.43.319-2.152.107-.738.134-1.486.08-2.23a19.435 19.435 0 0 0-.08-2.152Z" fill="url('#paint0_linear_4_268')"/><path d="M25.024 5.547c.017.348-.01.696-.08 1.036-.069.356-.176.703-.318 1.036l-.478.877-.638.796-.796.638-.957.478-.956.319H18.73l-1.036-.32-.877-.477-.797-.638-.717-.796-.478-.877-.319-1.036c0-.319-.08-.637-.08-1.036 0-.398.08-.637.08-.956 0-.319.24-.717.32-1.036l.477-.876.717-.797c.229-.255.498-.47.797-.637l.877-.479L18.73.448H20.8l.956.318.957.479.796.637.638.797.478.876c.153.33.26.678.319 1.036.066.314.092.636.08.956Z" fill="#EB662B"/></g></g></g><defs><clipPath id="clip0_4_268"><path fill="#fff" d="M0 0h167v32H0z"/></clipPath><clipPath id="clip1_4_268"><path fill="#fff" d="M0 0h167v32H0z"/></clipPath><clipPath id="clip2_4_268"><path fill="#fff" d="M0 0h167v32H0z"/></clipPath><linearGradient id="paint0_linear_4_268" x1="6.505" y1="10.583" x2="23.308" y2="35.669" gradientUnits="userSpaceOnUse"><stop stop-color="#EB662B"/><stop offset="1" stop-color="#F28555"/></linearGradient></defs></svg>