<svg width="60" height="60" fill="none" xmlns="http://www.w3.org/2000/svg"><g clip-path="url('#clip0_4_255')"><g clip-path="url('#clip1_4_255')"><path d="M38.767 31.746v23.326c0 .997-1.122 1.62-1.995.997l-6.733-4.863-6.733 4.863c-.873.624-1.995 0-1.995-.997V31.746h17.456Z" fill="#fff"/><path d="M30.04 38.737c9.64 0 17.456-7.815 17.456-17.456 0-9.64-7.816-17.456-17.457-17.456-9.64 0-17.456 7.815-17.456 17.456 0 9.641 7.816 17.456 17.456 17.456Z" fill="#FDF0EA"/><path d="m31.286 12.803 1.247 3.865c.125.499.624.873 1.247.873h3.99a1.232 1.232 0 0 1 .748 2.244l-3.242 2.37c-.498.373-.623.872-.498 1.37l1.246 3.866c.374 1.122-.997 2.12-1.87 1.372l-3.242-2.37c-.498-.373-.997-.373-1.496 0l-3.242 2.37c-.997.748-2.244-.25-1.87-1.372l1.247-3.865c.124-.499 0-1.122-.5-1.372l-3.24-2.369a1.232 1.232 0 0 1 .747-2.244h3.99c.499 0 .998-.374 1.247-.873l1.247-3.865c.125-1.123 1.87-1.123 2.244 0Z" fill="#fff"/><path d="M13.293 27.51a1.25 1.25 0 1 0 0-2.5 1.25 1.25 0 0 0 0 2.5Z" fill="#EB662B"/><path fill-rule="evenodd" clip-rule="evenodd" d="M20.256 37.307a18.821 18.821 0 0 1-6.502-6.966 1.25 1.25 0 0 1 2.203-1.187c2.74 5.082 8.11 8.537 14.283 8.537 8.95 0 16.217-7.266 16.217-16.215a16.15 16.15 0 0 0-4.026-10.69 1.252 1.252 0 0 1 1.881-1.649 18.649 18.649 0 0 1 4.646 12.339c0 6.66-3.488 12.514-8.734 15.831V50.25a1.251 1.251 0 0 1-2.502 0V38.636a18.635 18.635 0 0 1-7.482 1.557c-2.66 0-5.191-.556-7.482-1.557v16.65c0-.007.012-.017.018-.02l6.732-4.86a1.246 1.246 0 0 1 1.464 0s6.738 4.865 6.732 4.862c.01.007.018.03.018.018v-1.284a1.251 1.251 0 0 1 2.502 0v1.284c0 1.994-2.23 3.262-3.973 2.016l-.005-.003-6.006-4.337-6.005 4.337-.005.003c-1.744 1.246-3.974-.022-3.974-2.016V37.307Zm-6.19-14.66a1.251 1.251 0 0 1-2.495.178 18.542 18.542 0 0 1-.05-1.35c0-10.33 8.389-18.717 18.719-18.717 3.987 0 7.685 1.249 10.723 3.378a1.25 1.25 0 0 1 .306 1.74 1.253 1.253 0 0 1-1.742.308 16.132 16.132 0 0 0-9.287-2.925c-8.95 0-16.217 7.266-16.217 16.217 0 .394.015.784.043 1.172Zm12.64-6.165c.022-.017.092-.076.14-.136 0 0 1.173-3.638 1.173-3.633.16-.957.837-1.549 1.67-1.746 1.124-.268 2.54.29 2.987 1.634l1.248 3.871c.018.005.042.01.06.01h3.991c1.24 0 2.094.767 2.404 1.697.31.93.087 2.055-.91 2.804 0 0-3.241 2.367-3.248 2.374-.015.013-.027.028-.028.047l1.222 3.79c.376 1.126-.103 2.198-.917 2.792-.842.616-2 .71-2.911-.039l-3.218-2.35-.004-.005-.005.004-3.248 2.373c-2.023 1.504-4.556-.502-3.802-2.764 0 0 1.228-3.806 1.228-3.81.002-.006.002-.01.002-.016l-3.278-2.396-.006-.004c-.994-.745-1.215-1.87-.905-2.8.31-.93 1.162-1.697 2.403-1.697h3.953Zm-3.942 2.501 3.153 2.305c.951.547 1.294 1.74 1.045 2.736l-.01.04-1.234 3.827 3.157-2.308c.493-.367.996-.524 1.49-.524.493 0 .995.157 1.49.524l3.157 2.307-1.234-3.826-.01-.04c-.243-.971-.01-1.947.968-2.68l3.23-2.36h-3.983c-1.235 0-2.182-.795-2.449-1.773l-1.169-3.627-1.21 3.75-.042.085c-.465.929-1.437 1.564-2.366 1.564h-3.983Z" fill="#EB662B"/></g></g><defs><clipPath id="clip0_4_255"><path fill="#fff" d="M0 0h60v60H0z"/></clipPath><clipPath id="clip1_4_255"><path fill="#fff" d="M0 0h60v60H0z"/></clipPath></defs></svg>