<svg width="60" height="60" fill="none" xmlns="http://www.w3.org/2000/svg"><g clip-path="url('#clip0_4_213')"><g clip-path="url('#clip1_4_213')" fill-rule="evenodd" clip-rule="evenodd"><path d="M56.368 31.182c0 .814-.526 1.535-1.302 1.784a4.324 4.324 0 0 0-3.075 4.152 4.38 4.38 0 0 0 3.066 4.177 1.85 1.85 0 0 1 1.284 1.76c.027.854.027 1.919.027 2.818 0 1.035-.84 1.876-1.876 1.876H5.718a1.877 1.877 0 0 1-1.876-1.876v-2.818c0-.814.526-1.536 1.302-1.785a4.324 4.324 0 0 0 3.075-4.152 4.38 4.38 0 0 0-3.066-4.177 1.85 1.85 0 0 1-1.284-1.76c-.027-.6-.027-1.283-.027-1.883 0-.814.526-1.536 1.302-1.784a4.324 4.324 0 0 0 3.075-4.152 4.38 4.38 0 0 0-3.066-4.178 1.85 1.85 0 0 1-1.284-1.76c-.027-.853-.027-1.918-.027-2.817 0-1.035.84-1.876 1.876-1.876h48.774c1.036 0 1.876.84 1.876 1.876v2.818c0 .814-.526 1.535-1.302 1.784a4.324 4.324 0 0 0-3.075 4.152 4.38 4.38 0 0 0 3.066 4.178 1.85 1.85 0 0 1 1.284 1.76c.027.6.027 1.282.027 1.883Z" fill="#FDF0EA"/><path d="M32.164 23.615a1.872 1.872 0 0 1 3.139 0c.333.508.654 1 .892 1.366a1.88 1.88 0 0 0 1.08.784c.42.113.987.266 1.573.426a1.874 1.874 0 0 1 .97 2.985l-1.023 1.27c-.288.358-.434.81-.411 1.27l.08 1.628a1.873 1.873 0 0 1-2.539 1.845c-.568-.215-1.118-.425-1.524-.58a1.887 1.887 0 0 0-1.336 0c-.405.155-.955.365-1.524.58a1.873 1.873 0 0 1-2.539-1.845c.03-.606.06-1.194.08-1.628a1.876 1.876 0 0 0-.411-1.27l-1.024-1.27a1.875 1.875 0 0 1 .971-2.985c.587-.16 1.154-.313 1.574-.426.443-.121.828-.4 1.08-.784.238-.365.559-.858.892-1.366Z" fill="#fff"/><path d="M22.601 46.498a1.251 1.251 0 1 1 0 2.502 1.251 1.251 0 0 1 0-2.502Zm30.015-32.516h1.876c.345 0 .626.28.626.625v2.818a.626.626 0 0 1-.41.586 5.578 5.578 0 0 0-3.968 5.35 5.634 5.634 0 0 0 3.944 5.37.597.597 0 0 1 .406.567l.001.058c.027.581.027 1.244.027 1.826a.626.626 0 0 1-.41.586 5.578 5.578 0 0 0-3.968 5.35 5.634 5.634 0 0 0 3.944 5.37.597.597 0 0 1 .406.567v.041c.028.842.028 1.89.028 2.777 0 .345-.28.625-.626.625H26.353a1.251 1.251 0 0 0 0 2.501h28.14c1.726 0 3.126-1.399 3.126-3.126 0-.908 0-1.982-.028-2.848a3.098 3.098 0 0 0-2.158-2.923 3.13 3.13 0 0 1-2.191-2.983 3.072 3.072 0 0 1 2.207-2.962 3.124 3.124 0 0 0 2.17-2.975c0-.61 0-1.302-.028-1.914a3.102 3.102 0 0 0-2.15-2.92l-.008-.002a3.13 3.13 0 0 1-2.191-2.984 3.072 3.072 0 0 1 2.207-2.962 3.124 3.124 0 0 0 2.17-2.975v-2.818c0-1.727-1.4-3.126-3.127-3.126h-1.876a1.251 1.251 0 0 0 0 2.5ZM17.6 46.498v-3.136a1.251 1.251 0 0 0-2.501 0v3.136h-9.38a.626.626 0 0 1-.625-.625v-2.818c0-.262.165-.496.41-.586a5.578 5.578 0 0 0 3.967-5.35 5.634 5.634 0 0 0-3.943-5.37.597.597 0 0 1-.407-.567l-.001-.058c-.026-.581-.026-1.244-.026-1.826 0-.262.165-.496.41-.586a5.578 5.578 0 0 0 3.967-5.35 5.634 5.634 0 0 0-3.943-5.37.597.597 0 0 1-.407-.567v-.041c-.027-.842-.027-1.89-.027-2.777 0-.345.28-.625.625-.625h9.38v4.367a1.251 1.251 0 0 0 2.5 0v-4.367h31.266a1.251 1.251 0 0 0 0-2.501H5.718a3.126 3.126 0 0 0-3.127 3.126c0 .908 0 1.983.028 2.848.01 1.33.877 2.51 2.15 2.92a3.13 3.13 0 0 1 2.199 2.986 3.072 3.072 0 0 1-2.18 2.953c-.01.003-.018.005-.027.01a3.124 3.124 0 0 0-2.17 2.974c0 .61 0 1.302.028 1.914a3.102 3.102 0 0 0 2.158 2.923 3.13 3.13 0 0 1 2.191 2.983 3.072 3.072 0 0 1-2.18 2.953l-.027.009a3.124 3.124 0 0 0-2.17 2.975v2.818c0 1.727 1.4 3.126 3.127 3.126h13.131a1.251 1.251 0 0 0 0-2.5H17.6Zm-2.501-13.141v5.002a1.251 1.251 0 0 0 2.5 0v-5.002a1.251 1.251 0 0 0-2.5 0Zm0-10.005v5.002a1.251 1.251 0 0 0 2.5 0v-5.002a1.251 1.251 0 0 0-2.5 0Z" fill="#EB662B"/><path d="m31.223 23.168-.893 1.366a.625.625 0 0 1-.36.26l-1.575.428a3.129 3.129 0 0 0-1.619 4.979l1.024 1.271c.097.12.145.27.138.422l-.082 1.63a3.128 3.128 0 0 0 4.235 3.077l1.525-.58a.628.628 0 0 1 .445 0l1.526.58a3.128 3.128 0 0 0 4.236-3.076l-.082-1.63a.622.622 0 0 1 .137-.423l1.025-1.271a3.126 3.126 0 0 0-1.619-4.98l-1.574-.426a.625.625 0 0 1-.36-.261l-.894-1.366a3.123 3.123 0 0 0-5.233 0Zm2.093 1.367a.627.627 0 0 1 1.047 0l.893 1.367a3.126 3.126 0 0 0 1.799 1.308l1.576.427a.625.625 0 0 1 .323.995l-1.024 1.271a3.126 3.126 0 0 0-.687 2.117l.08 1.628a.625.625 0 0 1-.846.616l-1.524-.58a3.144 3.144 0 0 0-2.227 0l-1.524.58a.625.625 0 0 1-.846-.615l.08-1.63a3.126 3.126 0 0 0-.687-2.116l-1.024-1.271a.625.625 0 0 1 .323-.995l1.576-.427c.739-.201 1.38-.666 1.8-1.308l.892-1.367Z" fill="#EB662B"/></g></g><defs><clipPath id="clip0_4_213"><path fill="#fff" d="M0 0h60v60H0z"/></clipPath><clipPath id="clip1_4_213"><path fill="#fff" d="M0 0h60v60H0z"/></clipPath></defs></svg>