<svg width="14" height="14" fill="none" xmlns="http://www.w3.org/2000/svg"><path fill-rule="evenodd" clip-rule="evenodd" d="M12.333 3.579a1.163 1.163 0 0 1-.072.201c-.424.29-1.268.7-2.024.88-.908.217-2.023.347-3.237.347s-2.33-.13-3.236-.347C3 4.478 2.147 4.063 1.728 3.772a1.081 1.081 0 0 1-.051-.135c-.01-.032-.01-.048-.01-.05 0-.008.003-.113.228-.297.22-.182.58-.374 1.081-.55.999-.346 2.421-.573 4.024-.573 1.603 0 3.025.227 4.024.574.502.175.86.367 1.081.549.195.16.224.26.228.289ZM.65 4.577l5.5 8.822a1 1 0 0 0 1.698 0l5.502-8.825a.632.632 0 0 0 .017-.028l-.583-.324.583.324v-.001l.002-.003.003-.006a1.507 1.507 0 0 0 .042-.08c.025-.05.058-.119.092-.2.056-.133.16-.4.16-.669 0-.568-.333-1.013-.715-1.327-.387-.319-.907-.575-1.49-.778C10.289 1.074 8.71.833 7 .833c-1.711 0-3.288.24-4.462.649-.583.203-1.103.46-1.49.778-.382.314-.715.76-.715 1.327 0 .289.098.549.165.7a2.476 2.476 0 0 0 .148.283l.003.004.002.003Zm10.345 1.255L7 12.24 3.004 5.832c.151.048.302.09.45.125 1.022.244 2.243.384 3.546.384s2.524-.14 3.546-.384c.148-.035.299-.077.45-.125Z" fill="#0D0D1C"/></svg>